<?xml version="1.0" encoding="utf-8"?>
<svg xmlns="http://www.w3.org/2000/svg" viewBox="0 0 50 50" width="500" height="500">
  <path d="M15.984375 3.9863281 A 1.0001 1.0001 0 0 0 15 5L15 5.625C11.080936 5.3543248 7.3892731 4.9670695 4.1679688 4.4199219 A 1.0001 1.0001 0 1 0 3.8320312 6.390625C7.16588 6.9568886 10.972771 7.3509043 15 7.625L15 11.150391L12.755859 11.748047L12.744141 11.75 A 1.0001 1.0001 0 0 0 12.548828 11.824219C12.219202 11.902059 9.6827039 12.532181 8.3085938 14.796875C6.4374054 17.878479 3.3457031 23.013672 3.3457031 23.013672 A 1.0001 1.0001 0 0 0 3.6484375 24.363281L9.0332031 27.941406 A 1.0001 1.0001 0 0 0 10.40625 27.681641L12.248047 25.041016C13.03783 31.366218 13.302802 38.426646 12.019531 44.802734 A 1.0001 1.0001 0 0 0 12.292969 45.707031C12.800249 46.214312 13.449047 46.507906 14.25 46.791016C15.050953 47.074126 16.006361 47.314503 17.082031 47.519531C19.233372 47.929588 21.859302 48.194359 24.529297 48.269531C27.199292 48.344701 29.907029 48.229901 32.226562 47.855469C34.546096 47.481033 36.491162 46.922901 37.707031 45.707031 A 1.0001 1.0001 0 0 0 37.990234 44.853516C36.943008 37.744458 36.767331 31.034131 37.644531 24.806641L39.646484 27.636719 A 1.0001 1.0001 0 0 0 41.015625 27.892578L46.349609 24.363281 A 1.0001 1.0001 0 0 0 46.654297 23.013672C46.654297 23.013672 43.563912 17.879016 41.691406 14.796875L41.691406 14.794922C40.317719 12.532404 37.785135 11.902567 37.453125 11.824219C37.452513 11.824074 37.447866 11.822466 37.447266 11.822266 A 1.0001 1.0001 0 0 0 37.255859 11.75L37.244141 11.748047L35 11.150391L35 7.625C39.027229 7.3509043 42.83412 6.9568886 46.167969 6.390625 A 1.0001 1.0001 0 1 0 45.832031 4.4199219C42.610727 4.9670695 38.919064 5.3543248 35 5.625L35 5 A 1.0001 1.0001 0 1 0 33 5L33 5.6992188C30.391764 5.8422774 27.794336 6 25 6C22.205664 6 19.608236 5.8422773 17 5.6992188L17 5 A 1.0001 1.0001 0 0 0 15.984375 3.9863281 z M 17 7.6992188C19.612537 7.840365 22.207746 8 25 8C27.792254 8 30.387463 7.840365 33 7.6992188L33 10.619141L30.869141 10.052734 A 1.0001 1.0001 0 0 0 30.597656 10.001953 A 1.0001 1.0001 0 0 0 30.537109 10L30.498047 10L19.472656 10L19.462891 10 A 1.0001 1.0001 0 0 0 19.373047 10.003906 A 1.0001 1.0001 0 0 0 19.136719 10.050781L17 10.619141L17 7.6992188 z M 20.970703 12L29.029297 12C28.915425 12.250069 28.983667 12.274247 28.777344 12.558594C28.143356 13.432337 27.127705 14.292969 25 14.292969C22.872295 14.292969 21.856644 13.432337 21.222656 12.558594C21.016334 12.274247 21.084575 12.250069 20.970703 12 z M 18.816406 12.207031C18.988802 12.660714 19.204099 13.183911 19.603516 13.734375C20.527028 15.007132 22.281705 16.292969 25 16.292969C27.718295 16.292969 29.472972 15.007132 30.396484 13.734375C30.795901 13.183911 31.011198 12.660714 31.183594 12.207031L33 12.689453L33 13 A 1.0001 1.0001 0 0 0 34.978516 13.214844L35.666016 13.396484C35.376377 14.239345 35.076172 15.417848 35.076172 17.009766C35.076172 18.81636 35.319844 20.193411 35.572266 21.132812C35.759994 21.831456 35.882859 22.044601 35.978516 22.25C34.684928 29.158164 34.852475 36.636424 35.955078 44.478516C35.231164 45.016377 33.823193 45.571728 31.908203 45.880859C29.769268 46.226142 27.159318 46.341984 24.585938 46.269531C22.012556 46.197081 19.468909 45.938161 17.457031 45.554688C16.451092 45.362949 15.576934 45.13791 14.916016 44.904297C14.457932 44.74238 14.286591 44.611173 14.078125 44.480469C15.433594 37.135479 15.067512 29.077551 14.011719 22.275391C14.104129 22.078701 14.235699 21.84738 14.427734 21.132812C14.680171 20.193492 14.923828 18.816834 14.923828 17.009766C14.923828 15.417848 14.623623 14.239345 14.333984 13.396484L15.021484 13.214844 A 1.0001 1.0001 0 0 0 17 13L17 12.689453L18.816406 12.207031 z M 12.441406 14.021484C12.6726 14.673373 12.923828 15.611091 12.923828 17.009766C12.923828 18.637697 12.705157 19.837305 12.496094 20.615234C12.28703 21.393163 12.119141 21.689453 12.119141 21.689453 A 1.0001 1.0001 0 0 0 12.054688 21.839844 A 1.0001 1.0001 0 0 0 11.958984 21.958984L9.3261719 25.734375L5.5546875 23.228516C6.070338 22.372228 8.3384755 18.604417 10.019531 15.835938 A 1.0001 1.0001 0 0 0 10.019531 15.833984C10.618798 14.846323 11.687437 14.328134 12.441406 14.021484 z M 37.558594 14.021484C38.31248 14.327843 39.381257 14.846414 39.980469 15.833984C41.661412 18.6008 43.926019 22.365262 44.443359 23.224609L40.71875 25.689453L37.871094 21.660156C37.862394 21.644406 37.707323 21.370309 37.503906 20.613281C37.294828 19.835183 37.076172 18.637171 37.076172 17.009766C37.076172 15.611091 37.3274 14.673373 37.558594 14.021484 z" fill="#FFFFFF" />
</svg>