<?xml version="1.0" encoding="utf-8"?>
<svg xmlns="http://www.w3.org/2000/svg" viewBox="0 0 50 50" width="500" height="500">
  <path d="M20.75 0C20.300781 0 19.835938 0.0273438 19.34375 0.0625C17.371094 0.199219 15.027344 0.636719 12.28125 1.5625C6.742188 3.460938 3.648438 5.886719 1.96875 7.90625C1.128906 8.914063 0.65625 9.800781 0.375 10.46875C0.09375 11.136719 0 11.65625 0 11.65625L-0.03125 11.90625L0.0625 12.125C5.136719 27.449219 12.984375 32.609375 18.0625 34.21875C17.777344 37.105469 17.976563 39.578125 18.4375 41.625C19.621094 46.890625 22.53125 49.46875 22.53125 49.46875L22.71875 49.59375L22.90625 49.65625C22.90625 49.65625 26.667969 50.765625 31.84375 49.03125C37.019531 47.296875 43.683594 42.769531 49.875 31.90625L50 31.6875L50 31.46875C50 31.46875 50.019531 30.953125 49.875 30.25C49.730469 29.546875 49.414063 28.570313 48.78125 27.4375C47.515625 25.167969 44.953125 22.257813 39.875 19.4375C36.300781 17.433594 33.332031 16.519531 30.96875 16.1875C30.796875 12.347656 30.058594 7.800781 28.25 2.5625L28.15625 2.34375L28 2.1875C28 2.1875 27.625 1.835938 27 1.46875C26.375 1.101563 25.457031 0.671875 24.1875 0.375C23.234375 0.152344 22.09375 0 20.75 0 Z M 20.75 2C21.945313 2 22.917969 2.125 23.71875 2.3125C24.785156 2.5625 25.539063 2.917969 26 3.1875C26.316406 3.375 26.335938 3.410156 26.40625 3.46875C28.046875 8.296875 28.78125 12.492188 28.96875 16.03125C28.765625 16.03125 28.5625 16.023438 28.375 16.03125C27.0625 16.078125 26.0625 16.328125 25.375 16.5625C24.6875 16.796875 24.25 17.0625 24.25 17.0625L24.0625 17.1875L23.9375 17.40625C23.171875 18.761719 22.503906 20.078125 21.90625 21.34375C21.066406 21.386719 20.097656 21.507813 19 21.84375L18.96875 21.84375C14.917969 23.265625 13.5625 26.4375 13.5625 26.4375C13.355469 26.957031 13.605469 27.542969 14.125 27.75C14.644531 27.957031 15.230469 27.707031 15.4375 27.1875C15.4375 27.1875 16.269531 24.929688 19.59375 23.75C19.605469 23.746094 19.613281 23.753906 19.625 23.75C20.09375 23.605469 20.527344 23.535156 20.9375 23.46875C19.585938 26.683594 18.75 29.59375 18.3125 32.1875C13.832031 30.664063 6.859375 26.023438 2.0625 11.78125C2.078125 11.707031 2.058594 11.628906 2.21875 11.25C2.425781 10.753906 2.820313 10.039063 3.53125 9.1875C4.949219 7.484375 7.667969 5.238281 12.90625 3.4375C12.917969 3.433594 12.925781 3.441406 12.9375 3.4375C16.179688 2.351563 18.757813 1.996094 20.75 2 Z M 19.40625 12.3125C18.644531 12.335938 18.09375 12.40625 18.09375 12.40625C18.09375 12.40625 19.292969 15.386719 21.59375 15.6875C23.195313 15.886719 25.5 13.3125 25.5 13.3125C25.5 13.3125 23.898438 12.605469 22 12.40625C21.148438 12.304688 20.167969 12.289063 19.40625 12.3125 Z M 14 13.6875C14 13.6875 12.105469 14.894531 10.90625 16.09375C9.507813 17.492188 8.6875 18.90625 8.6875 18.90625C8.6875 18.90625 12.085938 19.699219 13.1875 18.5C14.789063 16.800781 14 13.6875 14 13.6875 Z M 28.46875 18.03125C30.691406 17.949219 34.136719 18.511719 38.90625 21.1875C43.726563 23.867188 45.96875 26.5 47.03125 28.40625C47.5625 29.359375 47.800781 30.140625 47.90625 30.65625C47.980469 31.007813 47.96875 31.035156 47.96875 31.125C42.007813 41.46875 35.855469 45.570313 31.21875 47.125C26.789063 48.609375 24.015625 47.867188 23.71875 47.78125C23.507813 47.59375 21.421875 45.695313 20.40625 41.1875C19.960938 39.210938 19.773438 36.761719 20.125 33.8125C20.1875 33.652344 20.210938 33.480469 20.1875 33.3125C20.59375 30.386719 21.539063 26.953125 23.3125 23.03125C23.324219 23.011719 23.335938 22.988281 23.34375 22.96875C23.347656 22.957031 23.371094 22.949219 23.375 22.9375C23.492188 22.792969 23.570313 22.621094 23.59375 22.4375C24.160156 21.222656 24.796875 19.96875 25.53125 18.65625C25.609375 18.613281 25.65625 18.5625 26.03125 18.4375C26.546875 18.261719 27.355469 18.070313 28.46875 18.03125 Z M 28.71875 25.625C27.003906 25.597656 25.09375 26.40625 25.09375 26.40625C25.09375 26.40625 26.695313 27.386719 28.59375 28.1875C30.394531 28.988281 32.40625 29.6875 32.40625 29.6875C32.40625 29.6875 31.8125 26.898438 30.3125 26C29.863281 25.75 29.289063 25.632813 28.71875 25.625 Z M 37.21875 30.625C36.0625 30.699219 35 31.09375 35 31.09375L38.1875 33.6875C39.886719 34.886719 41.59375 35.6875 41.59375 35.6875C41.59375 35.6875 40.988281 32 39.1875 31C38.625 30.664063 37.914063 30.582031 37.21875 30.625 Z M 24.34375 30.90625C23.945313 30.96875 23.625 31.265625 23.53125 31.65625C23.53125 31.65625 23.007813 33.75 23.0625 36.21875C23.117188 38.6875 23.75 41.773438 26.40625 43.28125C29.066406 44.792969 32.027344 43.738281 34.1875 42.5C36.347656 41.261719 37.90625 39.71875 37.90625 39.71875C38.167969 39.460938 38.265625 39.078125 38.160156 38.726563C38.054688 38.375 37.765625 38.105469 37.40625 38.03125C37.40625 38.03125 32.671875 36.953125 30.5625 35.8125C28.496094 34.691406 25.25 31.21875 25.25 31.21875C25.019531 30.96875 24.679688 30.847656 24.34375 30.90625 Z M 25.28125 34.125C26.445313 35.28125 27.984375 36.703125 29.625 37.59375C31.285156 38.492188 33.332031 39.0625 34.9375 39.46875C34.347656 39.960938 34.183594 40.210938 33.1875 40.78125C31.296875 41.867188 29.144531 42.519531 27.40625 41.53125C25.660156 40.539063 25.109375 38.34375 25.0625 36.1875C25.039063 35.082031 25.167969 34.871094 25.28125 34.125Z" fill="#FFFFFF" />
</svg>